<mxfile host="65bd71144e">
    <diagram id="KmJMBNfCgXH9N55C5TKI" name="Page-1">
        <mxGraphModel dx="724" dy="1279" grid="1" gridSize="10" guides="1" tooltips="1" connect="1" arrows="1" fold="1" page="1" pageScale="1" pageWidth="850" pageHeight="1100" math="0" shadow="0">
            <root>
                <mxCell id="0"/>
                <mxCell id="1" parent="0"/>
                <mxCell id="2" value="" style="endArrow=open;html=1;endFill=0;endSize=22;shadow=1;" edge="1" parent="1">
                    <mxGeometry width="50" height="50" relative="1" as="geometry">
                        <mxPoint x="167.5" y="350" as="sourcePoint"/>
                        <mxPoint x="167.5" y="30" as="targetPoint"/>
                    </mxGeometry>
                </mxCell>
                <mxCell id="4" value="" style="endArrow=open;html=1;endFill=0;endSize=22;shadow=1;" edge="1" parent="1">
                    <mxGeometry width="50" height="50" relative="1" as="geometry">
                        <mxPoint x="127.5" y="310" as="sourcePoint"/>
                        <mxPoint x="447.5" y="310" as="targetPoint"/>
                    </mxGeometry>
                </mxCell>
                <mxCell id="5" value="0" style="text;html=1;strokeColor=none;fillColor=none;align=center;verticalAlign=middle;whiteSpace=wrap;rounded=0;fontSize=21;shadow=1;" vertex="1" parent="1">
                    <mxGeometry x="127.5" y="320" width="40" height="20" as="geometry"/>
                </mxCell>
                <mxCell id="6" value="Interfault time&lt;br&gt;&lt;font style=&quot;font-size: 16px&quot;&gt;(time between page faults)&lt;/font&gt;" style="text;html=1;strokeColor=none;fillColor=none;align=center;verticalAlign=middle;whiteSpace=wrap;rounded=0;fontSize=21;shadow=1;" vertex="1" parent="1">
                    <mxGeometry x="10" y="120" width="150" height="110" as="geometry"/>
                </mxCell>
                <mxCell id="7" value="Page Frames allocated to the process" style="text;html=1;strokeColor=none;fillColor=none;align=center;verticalAlign=middle;whiteSpace=wrap;rounded=0;fontSize=21;shadow=1;" vertex="1" parent="1">
                    <mxGeometry x="187.5" y="330" width="190" height="70" as="geometry"/>
                </mxCell>
                <mxCell id="8" value="" style="curved=1;endArrow=none;html=1;fontSize=21;endSize=22;endFill=0;shadow=1;" edge="1" parent="1">
                    <mxGeometry width="50" height="50" relative="1" as="geometry">
                        <mxPoint x="167.5" y="310" as="sourcePoint"/>
                        <mxPoint x="407.5" y="70" as="targetPoint"/>
                        <Array as="points">
                            <mxPoint x="247.5" y="320"/>
                            <mxPoint x="317.5" y="60"/>
                        </Array>
                    </mxGeometry>
                </mxCell>
                <mxCell id="9" value="" style="endArrow=none;dashed=1;html=1;dashPattern=1 3;strokeWidth=2;fontSize=21;endSize=22;shadow=1;" edge="1" parent="1">
                    <mxGeometry width="50" height="50" relative="1" as="geometry">
                        <mxPoint x="127.5" y="70" as="sourcePoint"/>
                        <mxPoint x="447.5" y="70" as="targetPoint"/>
                    </mxGeometry>
                </mxCell>
                <mxCell id="10" value="" style="endArrow=none;dashed=1;html=1;dashPattern=1 3;strokeWidth=2;fontSize=21;endSize=22;shadow=1;" edge="1" parent="1">
                    <mxGeometry width="50" height="50" relative="1" as="geometry">
                        <mxPoint x="407.5" y="340" as="sourcePoint"/>
                        <mxPoint x="407.5" y="30" as="targetPoint"/>
                    </mxGeometry>
                </mxCell>
                <mxCell id="11" value="number of pages in &lt;br style=&quot;font-size: 14px&quot;&gt;process (every page allocated)" style="text;html=1;strokeColor=none;fillColor=none;align=center;verticalAlign=middle;whiteSpace=wrap;rounded=0;fontSize=14;shadow=1;" vertex="1" parent="1">
                    <mxGeometry x="367.5" y="360" width="85" height="30" as="geometry"/>
                </mxCell>
                <mxCell id="12" value="total execution time of process" style="text;html=1;strokeColor=none;fillColor=none;align=center;verticalAlign=middle;whiteSpace=wrap;rounded=0;fontSize=14;shadow=1;" vertex="1" parent="1">
                    <mxGeometry x="42.5" y="50" width="85" height="30" as="geometry"/>
                </mxCell>
            </root>
        </mxGraphModel>
    </diagram>
</mxfile>